<svg width="45" height="45" viewBox="0 0 45 45" fill="none" xmlns="http://www.w3.org/2000/svg">
<g clip-path="url(#clip0_115_480)">
<rect width="45" height="45" rx="10" fill="#F4F5F7"/>
<path d="M24.1659 22.6583C23.6173 22.4455 23.6173 21.6329 23.5833 21.067C23.4462 19.0513 24.1319 15.974 23.3091 14.6656C22.7265 13.887 19.9145 13.9583 18.2008 14.0647C17.7203 14.136 17.1377 14.2412 16.7263 14.454C16.3149 14.6668 15.9034 15.0199 15.9034 15.3379C15.9034 15.7974 16.9325 15.7272 17.3089 16.3282C17.7203 16.9654 17.7203 18.3439 17.7203 19.4757C17.7203 20.7841 17.514 22.5179 17.0006 22.5881C16.2117 22.6232 15.7663 21.8094 15.3549 21.2085C14.532 20.0416 13.7092 18.5907 13.0915 17.1759C12.7832 16.4335 12.6109 15.6197 12.1655 15.3017C11.4798 14.806 10.2455 14.7709 9.04528 14.806C7.94815 14.8411 6.37047 14.6996 6.06218 15.3719C5.82191 16.1143 6.33646 16.8217 6.61075 17.4238C8.01617 20.5713 9.52472 23.3306 11.3767 25.9473C13.0915 28.3874 14.7021 30.3329 17.8563 31.3583C18.7483 31.6413 22.6563 32.455 23.4451 31.3583C23.7194 30.9339 23.6514 29.9787 23.7885 29.2713C23.9256 28.5639 24.0968 27.8566 24.7485 27.8215C25.2971 27.7864 25.6053 28.281 25.9487 28.6352C26.3262 29.0246 26.6345 29.3426 26.9087 29.6969C27.5604 30.3691 28.2461 31.2881 29.069 31.6424C30.2001 32.1381 31.9489 31.9966 33.5946 31.9253C34.932 31.8903 35.892 31.6073 35.9952 30.7935C36.0643 30.1564 35.3775 29.2373 34.966 28.7065C33.9369 27.3982 33.4575 27.0089 32.2912 25.8058C31.7767 25.275 31.125 24.7091 31.125 24.073C31.091 23.6837 31.3993 23.3306 31.6736 22.9412C32.8738 21.1021 34.0741 19.7937 35.1712 17.8833C35.4795 17.3174 36.2003 16.0091 35.926 15.3719C35.6177 14.6645 33.9029 14.8761 32.8398 14.8761C31.4684 14.8761 29.6856 14.7698 29.3422 15.0527C28.6905 15.5122 28.4162 16.2558 28.1079 16.9632C27.4222 18.5907 26.4962 20.2521 25.5362 21.4903C25.1928 21.9147 24.5422 22.7986 24.1648 22.6572L24.1659 22.6583Z" fill="#7B48E7"/>
</g>
<defs>
<clipPath id="clip0_115_480">
<rect width="45" height="45" fill="white"/>
</clipPath>
</defs>
</svg>
