<svg width="200" height="450" viewBox="0 0 200 450" fill="none" xmlns="http://www.w3.org/2000/svg">
<path d="M200 114.486C200 101.817 191.888 87.0758 181.898 81.5887L37.0893 2.06206C27.0964 -3.42189 18.9871 2.40986 18.9871 15.0795V325.087C18.9871 337.757 27.0964 352.498 37.0893 357.985L181.898 437.509C191.888 442.996 200 437.164 200 424.494V114.486Z" fill="#EF6855"/>
<path d="M25.8623 0.850998L5.61841 11.9742L32.6429 20.4765L47.4348 7.74476L25.8623 0.850998ZM173.635 449.358L193.872 438.338L181.013 431.332L173.635 449.358Z" fill="#EF6855"/>
<path d="M181.013 124.914C181.013 112.244 172.9 97.5034 162.911 92.0163L18.1023 12.4896C8.10931 7.00569 0 12.8374 0 25.5071V335.512C0 348.185 8.10931 362.926 18.1023 368.409L162.911 447.936C172.9 453.423 181.013 447.591 181.013 434.919V124.914Z" fill="#E14F3B"/>
<path d="M173.635 126.867C173.635 115.259 166.205 101.751 157.051 96.7239L24.3606 23.855C15.2066 18.8276 7.77637 24.1718 7.77637 35.7825V332.661C7.77637 344.269 15.2066 357.777 24.3606 362.804L157.051 435.673C166.205 440.701 173.635 435.357 173.635 423.746V126.867Z" fill="#E2B0D7"/>
<path d="M192.798 157.591C192.798 155.644 191.551 153.377 190.017 152.535C188.482 151.691 187.235 152.588 187.235 154.535V220.948C187.235 222.895 188.482 225.162 190.017 226.004C191.551 226.848 192.798 225.951 192.798 224.004V157.591ZM192.798 240.44C192.798 238.493 191.551 236.229 190.017 235.385C188.482 234.543 187.235 235.441 187.235 237.388V258.954C187.235 260.901 188.482 263.165 190.017 264.009C191.551 264.851 192.798 263.957 192.798 262.01V240.44Z" fill="#4762AF"/>
<path d="M192.798 190.796L187.235 187.743V192.827L192.798 195.882V190.796Z" fill="#6D8ACA"/>
<path d="M116.24 92.4821C116.24 88.0602 113.409 82.9147 109.923 81.0018L70.8617 59.5504C67.3751 57.6345 64.5414 59.6715 64.5414 64.0935C64.5414 68.5154 67.3751 73.6609 70.8617 75.5738L109.923 97.0252C113.409 98.9411 116.24 96.9072 116.24 92.4821Z" fill="#303030"/>
<g filter="url(#filter0_b_121_486)">
<path d="M105.794 332.942C105.794 332.42 105.461 331.814 105.05 331.588L87.7443 322.086C87.333 321.859 87 322.098 87 322.62V330.181C87 330.703 87.333 331.311 87.7443 331.535L105.05 341.04C105.461 341.267 105.794 341.025 105.794 340.503V332.942Z" fill="#7B48E7"/>
</g>
<path d="M58.7944 346.945C58.7944 346.423 58.4614 345.814 58.0501 345.588L40.7443 336.086C40.333 335.859 40 336.098 40 336.62V344.184C40 344.703 40.333 345.311 40.7443 345.538L58.0501 355.04C58.4614 355.267 58.7944 355.028 58.7944 354.506V346.945ZM113.059 376.743C113.059 376.222 112.726 375.616 112.314 375.389L70.609 352.488C70.1977 352.261 69.8647 352.5 69.8647 353.022V360.583C69.8647 361.105 70.1977 361.714 70.609 361.937L112.314 384.842C112.726 385.069 113.059 384.826 113.059 384.305V376.743Z" fill="#F2F2F2"/>
<defs>
<filter id="filter0_b_121_486" x="83" y="318" width="26.7944" height="27.1254" filterUnits="userSpaceOnUse" color-interpolation-filters="sRGB">
<feFlood flood-opacity="0" result="BackgroundImageFix"/>
<feGaussianBlur in="BackgroundImageFix" stdDeviation="2"/>
<feComposite in2="SourceAlpha" operator="in" result="effect1_backgroundBlur_121_486"/>
<feBlend mode="normal" in="SourceGraphic" in2="effect1_backgroundBlur_121_486" result="shape"/>
</filter>
</defs>
</svg>
