<svg width="45" height="45" viewBox="0 0 45 45" fill="none" xmlns="http://www.w3.org/2000/svg">
<g clip-path="url(#clip0_199_1938)">
<rect width="45" height="45" rx="10" fill="#36383D"/>
<path d="M25.1659 22.6583C24.6173 22.4455 24.6173 21.6329 24.5833 21.067C24.4462 19.0513 25.1319 15.974 24.3091 14.6656C23.7265 13.887 20.9145 13.9583 19.2008 14.0647C18.7203 14.136 18.1377 14.2412 17.7263 14.454C17.3149 14.6668 16.9034 15.0199 16.9034 15.3379C16.9034 15.7974 17.9325 15.7272 18.3089 16.3282C18.7203 16.9654 18.7203 18.3439 18.7203 19.4757C18.7203 20.7841 18.514 22.5179 18.0006 22.5881C17.2117 22.6232 16.7663 21.8094 16.3549 21.2085C15.532 20.0416 14.7092 18.5907 14.0915 17.1759C13.7832 16.4335 13.6109 15.6197 13.1655 15.3017C12.4798 14.806 11.2455 14.7709 10.0453 14.806C8.94815 14.8411 7.37047 14.6996 7.06218 15.3719C6.82191 16.1143 7.33646 16.8217 7.61075 17.4238C9.01617 20.5713 10.5247 23.3306 12.3767 25.9473C14.0915 28.3874 15.7021 30.3329 18.8563 31.3583C19.7483 31.6413 23.6563 32.455 24.4451 31.3583C24.7194 30.9339 24.6514 29.9787 24.7885 29.2713C24.9256 28.5639 25.0968 27.8566 25.7485 27.8215C26.2971 27.7864 26.6053 28.281 26.9487 28.6352C27.3262 29.0246 27.6345 29.3426 27.9087 29.6969C28.5604 30.3691 29.2461 31.2881 30.069 31.6424C31.2001 32.1381 32.9489 31.9966 34.5946 31.9253C35.932 31.8902 36.892 31.6073 36.9952 30.7936C37.0643 30.1564 36.3775 29.2373 35.966 28.7065C34.9369 27.3982 34.4575 27.0089 33.2913 25.8058C32.7767 25.275 32.125 24.7091 32.125 24.073C32.091 23.6837 32.3993 23.3306 32.6736 22.9412C33.8738 21.1021 35.0741 19.7937 36.1712 17.8833C36.4795 17.3174 37.2003 16.0091 36.926 15.3719C36.6177 14.6645 34.9029 14.8761 33.8398 14.8761C32.4684 14.8761 30.6856 14.7698 30.3422 15.0527C29.6905 15.5122 29.4162 16.2558 29.1079 16.9632C28.4222 18.5907 27.4962 20.2521 26.5362 21.4903C26.1928 21.9147 25.5422 22.7986 25.1648 22.6572L25.1659 22.6583Z" fill="#161519"/>
</g>
<defs>
<clipPath id="clip0_199_1938">
<rect width="45" height="45" fill="white"/>
</clipPath>
</defs>
</svg>
