<svg width="103" height="127" viewBox="0 0 103 127" fill="none" xmlns="http://www.w3.org/2000/svg">
<g clip-path="url(#clip0_251_470)">
<mask id="mask0_251_470" style="mask-type:luminance" maskUnits="userSpaceOnUse" x="0" y="0" width="103" height="127">
<path d="M103 0H0V127H103V0Z" fill="white"/>
</mask>
<g mask="url(#mask0_251_470)">
<mask id="mask1_251_470" style="mask-type:luminance" maskUnits="userSpaceOnUse" x="-21" y="-8" width="140" height="141">
<path d="M119 -8H-21V133H119V-8Z" fill="white"/>
</mask>
<g mask="url(#mask1_251_470)">
<mask id="mask2_251_470" style="mask-type:luminance" maskUnits="userSpaceOnUse" x="-12" y="12" width="145" height="145">
<path d="M133 12H-12V157H133V12Z" fill="white"/>
</mask>
<g mask="url(#mask2_251_470)">
<g filter="url(#filter0_i_251_470)">
<path d="M90.7083 27.1042H12.1667C7.16162 27.1042 3.10419 31.1616 3.10419 36.1667V114.708C3.10419 119.714 7.16162 123.771 12.1667 123.771H90.7083C95.7136 123.771 99.7708 119.714 99.7708 114.708V36.1667C99.7708 31.1616 95.7136 27.1042 90.7083 27.1042Z" fill="#181818"/>
</g>
<path d="M90.7083 27.1042H12.1667C7.16162 27.1042 3.10419 31.1616 3.10419 36.1667V114.708C3.10419 119.714 7.16162 123.771 12.1667 123.771H90.7083C95.7136 123.771 99.7708 119.714 99.7708 114.708V36.1667C99.7708 31.1616 95.7136 27.1042 90.7083 27.1042Z" stroke="#FF6D40" stroke-width="6" stroke-linejoin="round"/>
<path d="M27.2708 73.8842L45.3949 90.5746L75.6042 59.4851" stroke="white" stroke-width="6.858" stroke-linecap="round" stroke-linejoin="round"/>
<path d="M52.8486 94.4206L56.4302 99.1064L55.5982 99.993L52.635 96.1096L51.0253 97.8249L53.9885 101.708L53.1565 102.595L49.5748 97.9092L52.8486 94.4206ZM59.4235 91.7818C59.8039 92.2843 60.0479 92.7951 60.1555 93.3142C60.2644 93.832 60.2514 94.3275 60.1163 94.8007C59.9826 95.2726 59.7433 95.6922 59.3986 96.0596C59.037 96.4449 58.6376 96.6947 58.2004 96.8091C57.7645 96.9221 57.3225 96.8852 56.8744 96.6984C56.4249 96.5104 56.0017 96.1574 55.6047 95.6394C55.2204 95.1384 54.9744 94.6284 54.8668 94.1092C54.7578 93.5888 54.7708 93.0906 54.9057 92.6147C55.0393 92.1374 55.2791 91.7145 55.6251 91.3457C55.9841 90.9632 56.3823 90.716 56.8196 90.6044C57.2581 90.4913 57.7022 90.5301 58.1518 90.7208C58.6012 90.9089 59.0252 91.2625 59.4235 91.7818ZM58.48 92.5755C58.2339 92.2537 57.9876 92.0264 57.7408 91.8935C57.494 91.758 57.2553 91.7107 57.0248 91.7515C56.7943 91.7923 56.5812 91.917 56.3855 92.1255C56.173 92.352 56.0345 92.613 55.9702 92.9085C55.9072 93.2026 55.9225 93.5156 56.0161 93.8476C56.1097 94.1769 56.2864 94.5103 56.5463 94.8478C56.7925 95.1722 57.0382 95.4003 57.2836 95.5318C57.5302 95.662 57.7687 95.7053 57.9992 95.6618C58.2295 95.6157 58.4419 95.489 58.6363 95.2818C58.8475 95.0567 58.9854 94.7991 59.0499 94.509C59.1143 94.2162 59.1004 93.9058 59.0082 93.5777C58.9147 93.2484 58.7386 92.9143 58.48 92.5755ZM62.7134 94.4619L61.2436 92.5449L61.5139 92.257C61.5458 92.0818 61.5455 91.8828 61.513 91.6601C61.4804 91.4347 61.3949 91.1674 61.2564 90.8583C61.1179 90.5465 60.9037 90.1741 60.614 89.7411L59.2127 87.6391L61.8469 84.8321L64.8265 88.727L65.262 88.263L66.7276 90.176L65.9189 91.0378L65.0552 89.9156L62.6543 92.474L63.5221 93.6001L62.7134 94.4619ZM62.4859 91.2212L64.0178 89.5888L61.661 86.5122L60.5938 87.6495L61.4227 88.8793C61.6434 89.206 61.8259 89.5097 61.9702 89.7905C62.1157 90.0699 62.2298 90.3289 62.3124 90.5675C62.3949 90.8034 62.4528 91.0213 62.4859 91.2212ZM66.4524 79.9245L70.034 84.6102L69.202 85.4968L66.2387 81.6135L64.6291 83.3287L67.5923 87.2121L66.7602 88.0987L63.1786 83.413L66.4524 79.9245ZM67.5276 78.7788L68.3674 77.8838L70.6196 80.8311L70.6546 80.7938L70.1209 76.0153L70.8577 75.2302L74.4393 79.9159L73.5976 80.8129L71.3433 77.8637L71.3142 77.8948L71.8382 82.6877L71.1092 83.4645L67.5276 78.7788ZM76.5899 72.0986L75.7501 72.9935C75.6339 72.8793 75.5147 72.796 75.3925 72.7436C75.2688 72.6899 75.1434 72.6657 75.0163 72.6711C74.8905 72.6751 74.767 72.7085 74.6457 72.7713C74.523 72.8328 74.4066 72.9223 74.2964 73.0397C74.0839 73.2662 73.9455 73.5271 73.8812 73.8226C73.8168 74.1181 73.8315 74.4318 73.9251 74.7638C74.0174 75.0945 74.1921 75.4273 74.4492 75.7622C74.6967 76.0853 74.9444 76.3125 75.1924 76.444C75.4405 76.5755 75.679 76.6202 75.9082 76.5781C76.1372 76.5333 76.3483 76.408 76.5414 76.2022C76.6606 76.0751 76.7581 75.9394 76.8339 75.795C76.9084 75.6492 76.9593 75.5009 76.9866 75.35C77.0139 75.1963 77.0164 75.0428 76.9941 74.8895C76.9731 74.7347 76.9255 74.5848 76.8512 74.4398L77.6969 73.5386C77.8385 73.778 77.9433 74.0427 78.0115 74.3326C78.0809 74.6211 78.1045 74.9199 78.0822 75.2287C78.0584 75.5363 77.983 75.8409 77.8559 76.1424C77.7288 76.4439 77.5402 76.7279 77.2901 76.9944C76.9285 77.3797 76.5297 77.6275 76.0937 77.7379C75.659 77.8468 75.2182 77.8059 74.7714 77.6151C74.3245 77.4242 73.9019 77.0705 73.5036 76.5539C73.1205 76.0516 72.8745 75.5415 72.7657 75.0238C72.6567 74.5033 72.6691 74.0072 72.8028 73.5353C72.9378 73.062 73.1758 72.6438 73.5166 72.2806C73.7538 72.0279 74.0028 71.8317 74.2637 71.6921C74.5246 71.5525 74.7887 71.4731 75.0561 71.4539C75.3233 71.432 75.5866 71.4739 75.8459 71.5796C76.1052 71.6852 76.3532 71.8582 76.5899 72.0986ZM82.2075 71.6382L79.4017 71.0038L79.114 71.3104L80.6406 73.3079L79.7988 74.2049L76.2172 69.5191L77.059 68.6221L78.4891 70.4941L78.6583 70.3139L78.5501 67.0332L79.5979 65.9167L79.7074 69.7439L83.2514 70.5258L82.2075 71.6382ZM80.3669 65.0972L81.2067 64.2023L83.4589 67.1496L83.4939 67.1123L82.9602 62.3338L83.697 61.5486L87.2786 66.2344L86.4369 67.1314L84.1826 64.1822L84.1535 64.2133L84.6775 69.0062L83.9485 69.783L80.3669 65.0972Z" fill="white"/>
<path d="M46.4351 69.3057L47.4973 68.2226L50.9586 70.2762L51.0063 70.2275L49.7889 65.886L50.8511 64.8029L54.3287 69.5664L53.4932 70.4182L51.2311 67.3164L51.1953 67.3529L52.3908 71.5017L51.8199 72.0838L48.5137 70.0669L48.4799 70.1014L50.7482 73.2173L49.9127 74.0691L46.4351 69.3057ZM57.3721 62.422C57.7414 62.9327 57.9741 63.4488 58.0702 63.9702C58.1677 64.4902 58.1437 64.9853 57.9983 65.4555C57.8542 65.9243 57.6057 66.3385 57.253 66.6982C56.883 67.0754 56.4782 67.3164 56.0386 67.4212C55.6003 67.5245 55.1592 67.4779 54.7154 67.2814C54.2701 67.0835 53.8548 66.7212 53.4693 66.1946C53.0961 65.6853 52.8614 65.1699 52.7652 64.6486C52.6677 64.1259 52.6917 63.6281 52.8371 63.1552C52.9811 62.6811 53.2302 62.2635 53.5842 61.9024C53.9516 61.5279 54.3551 61.2896 54.7947 61.1875C55.2357 61.0841 55.6788 61.1327 56.124 61.3333C56.5692 61.5312 56.9853 61.8941 57.3721 62.422ZM56.4113 63.1948C56.1724 62.8676 55.9311 62.635 55.6873 62.4967C55.4436 62.3558 55.206 62.3032 54.9746 62.3389C54.7433 62.3746 54.5275 62.4946 54.3273 62.6988C54.1098 62.9205 53.9656 63.1784 53.8948 63.4724C53.8254 63.765 53.8338 64.0783 53.92 64.4123C54.0063 64.7436 54.1757 65.0808 54.4281 65.4239C54.667 65.7537 54.9077 65.9871 55.1501 66.124C55.3938 66.2596 55.6313 66.3082 55.8627 66.2698C56.094 66.2287 56.3091 66.1067 56.508 65.9039C56.7241 65.6835 56.8677 65.429 56.9385 65.1403C57.0093 64.849 57.0023 64.5384 56.9174 64.2084C56.8311 63.8771 56.6624 63.5392 56.4113 63.1948ZM56.5026 59.0404L57.3619 58.1641L59.5486 61.1603L59.5844 61.1237L59.1562 56.3346L59.9101 55.5659L63.3876 60.3294L62.5263 61.2076L60.3376 58.2095L60.3077 58.2399L60.7261 63.0432L59.9802 63.8038L56.5026 59.0404Z" fill="white"/>
</g>
<path d="M19 13.5267H79" stroke="#FF6D40" stroke-width="6" stroke-linecap="round" stroke-linejoin="round"/>
<path d="M29 2.76337H69" stroke="#FF6D40" stroke-width="5" stroke-linecap="round" stroke-linejoin="round"/>
</g>
</g>
</g>
<defs>
<filter id="filter0_i_251_470" x="3.10419" y="27.1042" width="96.6666" height="100.667" filterUnits="userSpaceOnUse" color-interpolation-filters="sRGB">
<feFlood flood-opacity="0" result="BackgroundImageFix"/>
<feBlend mode="normal" in="SourceGraphic" in2="BackgroundImageFix" result="shape"/>
<feColorMatrix in="SourceAlpha" type="matrix" values="0 0 0 0 0 0 0 0 0 0 0 0 0 0 0 0 0 0 127 0" result="hardAlpha"/>
<feOffset dy="4"/>
<feGaussianBlur stdDeviation="2"/>
<feComposite in2="hardAlpha" operator="arithmetic" k2="-1" k3="1"/>
<feColorMatrix type="matrix" values="0 0 0 0 0 0 0 0 0 0 0 0 0 0 0 0 0 0 0.25 0"/>
<feBlend mode="normal" in2="shape" result="effect1_innerShadow_251_470"/>
</filter>
<clipPath id="clip0_251_470">
<rect width="103" height="127" fill="white"/>
</clipPath>
</defs>
</svg>
