<svg width="29" height="29" viewBox="0 0 29 29" fill="none" xmlns="http://www.w3.org/2000/svg">
<path d="M26.5834 24.1667L24.1667 26.5833L16.9167 19.3333V16.9167H19.3334L26.5834 24.1667Z" fill="#FF6D40"/>
<path d="M10.8751 19.3333C6.16258 19.3333 2.41675 15.5875 2.41675 10.875C2.41675 6.16249 6.16258 2.41666 10.8751 2.41666C15.5876 2.41666 19.3334 6.16249 19.3334 10.875C19.3334 15.5875 15.5876 19.3333 10.8751 19.3333ZM10.8751 4.83332C7.49175 4.83332 4.83342 7.49166 4.83342 10.875C4.83342 14.2583 7.49175 16.9167 10.8751 16.9167C14.2584 16.9167 16.9168 14.2583 16.9168 10.875C16.9168 7.49166 14.2584 4.83332 10.8751 4.83332Z" fill="#FF6D40"/>
<path d="M15.2539 16.1932L16.1084 15.3389L19.0985 18.3298L18.244 19.1841L15.2539 16.1932Z" fill="#FF6D40"/>
</svg>
