<svg width="26" height="26" viewBox="0 0 26 26" fill="none" xmlns="http://www.w3.org/2000/svg">
<g clip-path="url(#clip0_256_511)">
<path d="M17 0C12.0547 0 8 4.05469 8 9C8 9.51953 8.08594 9.97656 8.15625 10.4375L0.28125 18.2812L0 18.5938V26H7V23H10V20H13V17.0312C14.1797 17.6094 15.5547 18 17 18C21.9453 18 26 13.9453 26 9C26 4.05469 21.9453 0 17 0ZM17 2C20.8555 2 24 5.14453 24 9C24 12.8555 20.8555 16 17 16C15.7891 16 14.543 15.6445 13.5938 15.125L13.3438 15H11V18H8V21H5V24H2V19.4375L9.90625 11.5L10.2812 11.1562L10.1875 10.625C10.0859 10.0234 10 9.48828 10 9C10 5.14453 13.1445 2 17 2ZM19 5C17.8945 5 17 5.89453 17 7C17 8.10547 17.8945 9 19 9C20.1055 9 21 8.10547 21 7C21 5.89453 20.1055 5 19 5Z" fill="#999999"/>
</g>
<defs>
<clipPath id="clip0_256_511">
<rect width="26" height="26" fill="white"/>
</clipPath>
</defs>
</svg>
