<svg width="59" height="61" viewBox="0 0 59 61" fill="none" xmlns="http://www.w3.org/2000/svg">
<path opacity="0.4" d="M29.8525 32.6448C29.6667 32.6173 29.4279 32.6173 29.2157 32.6448C24.546 32.4798 20.8315 28.5198 20.8315 23.6523C20.8315 18.6748 24.7052 14.6323 29.5341 14.6323C34.3364 14.6323 38.2366 18.6748 38.2366 23.6523C38.2101 28.5198 34.5221 32.4798 29.8525 32.6448Z" stroke="#383838" stroke-width="4.84" stroke-linecap="round" stroke-linejoin="round"/>
<path opacity="0.34" d="M47.4143 50.795C42.6916 55.2775 36.43 57.9999 29.5316 57.9999C22.6332 57.9999 16.3716 55.2775 11.6489 50.795C11.9142 48.21 13.5062 45.68 16.3451 43.7C23.6149 38.695 35.5014 38.695 42.7181 43.7C45.557 45.68 47.1489 48.21 47.4143 50.795Z" stroke="#383838" stroke-width="4.84" stroke-linecap="round" stroke-linejoin="round"/>
<path d="M29.5321 57.9997C44.1852 57.9997 56.0642 45.6875 56.0642 30.4999C56.0642 15.3121 44.1852 3 29.5321 3C14.8788 3 3 15.3121 3 30.4999C3 45.6875 14.8788 57.9997 29.5321 57.9997Z" stroke="#FF6D40" stroke-width="4.84" stroke-linecap="round" stroke-linejoin="round"/>
</svg>
