<svg width="32" height="30" viewBox="0 0 32 30" fill="none" xmlns="http://www.w3.org/2000/svg">
<path fill-rule="evenodd" clip-rule="evenodd" d="M2.61814 11.7165C6.06124 6.91258 11.0658 4.06734 16.5 4.06734C18.4307 4.06734 20.3136 4.4275 22.0934 5.11112C22.6466 5.32353 22.9243 5.94839 22.7139 6.50677C22.5036 7.06516 21.8846 7.34563 21.3316 7.13321C19.7891 6.54081 18.1641 6.2308 16.5 6.2308C11.8487 6.2308 7.45344 8.66021 4.35369 12.9855L4.35267 12.9869C3.86991 13.6583 3.59281 14.6202 3.59281 15.6419C3.59281 16.6635 3.86991 17.6255 4.35267 18.2968L4.35369 18.2982C4.96947 19.1575 5.63671 19.942 6.34669 20.6473C6.76846 21.0663 6.77392 21.7512 6.35888 22.177C5.94384 22.6029 5.26548 22.6084 4.84371 22.1894C4.04598 21.3969 3.30121 20.5204 2.61762 19.5664C1.81538 18.4501 1.44995 17.0161 1.44995 15.6419C1.44995 14.2672 1.81554 12.833 2.61814 11.7165ZM26.1756 8.70927C26.5763 8.2697 27.2541 8.24132 27.6896 8.6459C28.6649 9.55216 29.567 10.5798 30.3823 11.7173C31.1846 12.8336 31.55 14.2675 31.55 15.6419C31.55 17.0164 31.1843 18.4507 30.3817 19.5671C26.9387 24.3712 21.9341 27.2164 16.5 27.2164C14.3734 27.2164 12.3054 26.7794 10.3692 25.9551C9.82398 25.7231 9.56836 25.0886 9.79829 24.5381C10.0282 23.9875 10.6566 23.7295 11.2019 23.9617C12.8821 24.6771 14.6674 25.053 16.5 25.053C21.1513 25.053 25.5464 22.6235 28.6461 18.2982L28.6473 18.2968C29.13 17.6255 29.4071 16.6635 29.4071 15.6419C29.4071 14.6202 29.13 13.6583 28.6473 12.9869L28.6461 12.9855C27.9119 11.9608 27.1043 11.0424 26.2384 10.2378C25.803 9.83318 25.7749 9.14886 26.1756 8.70927Z" fill="#999999"/>
<path fill-rule="evenodd" clip-rule="evenodd" d="M16.5 12.4039C14.7214 12.4039 13.2857 13.8534 13.2857 15.6491C13.2857 16.4401 13.5629 17.1608 14.0248 17.7224C14.4028 18.1821 14.3401 18.864 13.8848 19.2456C13.4296 19.6273 12.7541 19.5641 12.3761 19.1044C11.6058 18.1677 11.1428 16.9619 11.1428 15.6491C11.1428 12.6586 13.5379 10.2405 16.5 10.2405C17.9593 10.2405 19.2837 10.8289 20.249 11.783C20.6718 12.201 20.679 12.8858 20.265 13.3127C19.851 13.7396 19.1727 13.7469 18.7498 13.3289C18.1701 12.7558 17.3781 12.4039 16.5 12.4039ZM20.7857 14.5674C21.3774 14.5674 21.8571 15.0517 21.8571 15.6491C21.8571 18.6396 19.462 21.0578 16.5 21.0578C15.9083 21.0578 15.4285 20.5734 15.4285 19.976C15.4285 19.3786 15.9083 18.8943 16.5 18.8943C18.2785 18.8943 19.7143 17.4448 19.7143 15.6491C19.7143 15.0517 20.194 14.5674 20.7857 14.5674Z" fill="#999999"/>
</svg>
