<svg width="26" height="33" viewBox="0 0 26 33" fill="none" xmlns="http://www.w3.org/2000/svg">
<path d="M22.0293 11.6968H21.4379V7.89621C21.4381 3.62912 17.4992 0.157562 12.6576 0.157562C7.81624 0.157562 3.87737 3.62912 3.87737 7.89621V11.6968H3.28569C1.56088 11.6968 0.157471 12.9338 0.157471 14.4541V29.4002C0.157471 30.9205 1.56088 32.1576 3.28569 32.1576H22.0293C23.7541 32.1576 25.1575 30.9205 25.1575 29.4002V14.4541C25.1575 12.9338 23.7542 11.6968 22.0293 11.6968ZM6.5587 7.89621C6.5587 4.93231 9.29473 2.52099 12.6576 2.52099C16.0206 2.52099 18.7566 4.93231 18.7566 7.89621V11.6968H6.5587V7.89621ZM22.4761 29.4004C22.4761 29.6139 22.2715 29.7943 22.0293 29.7943H3.28569C3.04347 29.7943 2.8388 29.6139 2.8388 29.4004V14.4541C2.8388 14.2406 3.04347 14.0602 3.28569 14.0602H5.21803H20.0973H22.0293C22.2715 14.0602 22.4761 14.2406 22.4761 14.4541V29.4004Z" fill="#999999"/>
<path fill-rule="evenodd" clip-rule="evenodd" d="M3.7199 7.89621C3.7199 3.52399 7.7486 0 12.6577 0C17.5671 0 21.5958 3.52399 21.5956 7.89621V11.5392H22.0293C23.8221 11.5392 25.3151 12.8287 25.3151 14.4541V29.4002C25.3151 31.0257 23.8219 32.3151 22.0293 32.3151H3.28578C1.49322 32.3151 0 31.0257 0 29.4002V14.4541C0 12.8287 1.49322 11.5392 3.28578 11.5392H3.7199V7.89621ZM12.6577 0.315122C7.88406 0.315122 4.03502 3.73425 4.03502 7.89621V11.8543H3.28578C1.62871 11.8543 0.315122 13.0389 0.315122 14.4541V29.4002C0.315122 30.8154 1.62871 32 3.28578 32H22.0293C23.6864 32 25 30.8154 25 29.4002V14.4541C25 13.0389 23.6866 11.8543 22.0293 11.8543H21.2805V7.8962C21.2806 3.73425 17.4316 0.315122 12.6577 0.315122ZM12.6577 2.67855C9.36254 2.67855 6.71635 5.03744 6.71635 7.89621V11.5392H18.5991V7.89621C18.5991 5.03744 15.9529 2.67855 12.6577 2.67855ZM6.40123 7.89621C6.40123 4.82718 9.22709 2.36343 12.6577 2.36343C16.0884 2.36343 18.9143 4.82718 18.9143 7.89621V11.8543H6.40123V7.89621ZM3.28578 14.2177C3.11131 14.2177 2.99645 14.3457 2.99645 14.4541V29.4004C2.99645 29.5088 3.11131 29.6367 3.28578 29.6367H22.0293C22.2038 29.6367 22.3187 29.5088 22.3187 29.4004V14.4541C22.3187 14.3457 22.2038 14.2177 22.0293 14.2177H3.28578ZM2.68133 14.4541C2.68133 14.1355 2.97582 13.9026 3.28578 13.9026H22.0293C22.3393 13.9026 22.6338 14.1355 22.6338 14.4541V29.4004C22.6338 29.719 22.3393 29.9519 22.0293 29.9519H3.28578C2.97582 29.9519 2.68133 29.719 2.68133 29.4004V14.4541Z" fill="#999999"/>
<path d="M12.6573 18.4834C11.9169 18.4834 11.3167 19.0123 11.3167 19.6651V24.1895C11.3167 24.8423 11.9169 25.3712 12.6573 25.3712C13.3977 25.3712 13.998 24.8423 13.998 24.1895V19.6651C13.998 19.0123 13.3977 18.4834 12.6573 18.4834Z" fill="#999999"/>
<path fill-rule="evenodd" clip-rule="evenodd" d="M11.1592 19.6651C11.1592 18.9072 11.8493 18.3258 12.6574 18.3258C13.4655 18.3258 14.1556 18.9072 14.1556 19.6651V24.1895C14.1556 24.9474 13.4655 25.5288 12.6574 25.5288C11.8493 25.5288 11.1592 24.9474 11.1592 24.1895V19.6651ZM12.6574 18.641C11.9847 18.641 11.4743 19.1175 11.4743 19.6651V24.1895C11.4743 24.7372 11.9847 25.2137 12.6574 25.2137C13.3301 25.2137 13.8405 24.7372 13.8405 24.1895V19.6651C13.8405 19.1175 13.3301 18.641 12.6574 18.641Z" fill="#999999"/>
</svg>
