<svg width="25" height="32" viewBox="0 0 25 32" fill="none" xmlns="http://www.w3.org/2000/svg">
<g clip-path="url(#clip0_256_504)">
<path d="M3.11816 10.7701C3.11816 16.1437 7.34002 20.5402 12.5001 20.5402C17.6601 20.5402 21.882 16.1437 21.882 10.7701C21.882 5.39655 17.6601 1 12.5001 1C7.34002 1 3.11816 5.39655 3.11816 10.7701ZM19.6745 10.7701C19.6745 14.8793 16.446 18.2414 12.5001 18.2414C8.55415 18.2414 5.32567 14.8793 5.32567 10.7701C5.32567 6.66092 8.55415 3.29885 12.5001 3.29885C16.446 3.29885 19.6745 6.66092 19.6745 10.7701Z" fill="#999999"/>
<path fill-rule="evenodd" clip-rule="evenodd" d="M2.86816 10.7701C2.86816 5.26813 7.19249 0.75 12.5001 0.75C17.8076 0.75 22.132 5.26813 22.132 10.7701C22.132 16.2721 17.8076 20.7902 12.5001 20.7902C7.19249 20.7902 2.86816 16.2721 2.86816 10.7701ZM12.5001 1.25C7.48755 1.25 3.36816 5.52497 3.36816 10.7701C3.36816 16.0153 7.48755 20.2902 12.5001 20.2902C17.5126 20.2902 21.632 16.0153 21.632 10.7701C21.632 5.52497 17.5126 1.25 12.5001 1.25ZM12.5001 3.54885C8.70167 3.54885 5.57567 6.78934 5.57567 10.7701C5.57567 14.7509 8.70167 17.9914 12.5001 17.9914C16.2985 17.9914 19.4245 14.7509 19.4245 10.7701C19.4245 6.78934 16.2985 3.54885 12.5001 3.54885ZM5.07567 10.7701C5.07567 6.5325 8.40662 3.04885 12.5001 3.04885C16.5935 3.04885 19.9245 6.5325 19.9245 10.7701C19.9245 15.0077 16.5935 18.4914 12.5001 18.4914C8.40662 18.4914 5.07567 15.0077 5.07567 10.7701Z" fill="#999999"/>
<path d="M1.57309 31C4.49804 27.954 8.36117 26.2873 12.5002 26.2873C16.6393 26.2873 20.5024 27.954 23.4274 31L25.0002 29.3621C21.6614 25.9138 17.2188 23.9885 12.5002 23.9885C7.7817 23.9885 3.3391 25.9138 0.000244141 29.3621L1.57309 31Z" fill="#999999"/>
<path fill-rule="evenodd" clip-rule="evenodd" d="M-0.17948 29.1882C3.20494 25.6928 7.71172 23.7385 12.5001 23.7385C17.2885 23.7385 21.7953 25.6928 25.1797 29.1882L25.3474 29.3613L23.4273 31.3609L23.247 31.1731C20.368 28.1751 16.5696 26.5373 12.5001 26.5373C8.43069 26.5373 4.6322 28.1751 1.75329 31.1731L1.57297 31.3609L-0.347168 29.3613L-0.17948 29.1882ZM0.34851 29.3639L1.57439 30.6405C4.52289 27.6649 8.37667 26.0373 12.5001 26.0373C16.6236 26.0373 20.4774 27.6649 23.4259 30.6405L24.6517 29.3639C21.3784 26.0709 17.0698 24.2385 12.5001 24.2385C7.93042 24.2385 3.62186 26.0709 0.34851 29.3639Z" fill="#999999"/>
</g>
<defs>
<clipPath id="clip0_256_504">
<rect width="25" height="32" fill="white"/>
</clipPath>
</defs>
</svg>
