<svg width="24" height="32" viewBox="0 0 24 32" fill="none" xmlns="http://www.w3.org/2000/svg">
<g clip-path="url(#clip0_301_854)">
<g clip-path="url(#clip1_301_854)">
<path d="M17.6972 31.8125H3.58294C2.87236 31.8197 2.18762 31.5706 1.67881 31.1196C1.17001 30.6686 0.878667 30.0526 0.868652 29.4067V2.63422C0.878667 1.98827 1.17001 1.37229 1.67881 0.921305C2.18762 0.470324 2.87236 0.221146 3.58294 0.228395H17.6972C18.4078 0.221146 19.0925 0.470324 19.6013 0.921305C20.1102 1.37229 20.4015 1.98827 20.4115 2.63422V29.4067C20.4015 30.0526 20.1102 30.6686 19.6013 31.1196C19.0925 31.5706 18.4078 31.8197 17.6972 31.8125ZM3.58294 1.2154C3.16029 1.20811 2.75168 1.3533 2.44648 1.61919C2.14128 1.88508 1.96434 2.25003 1.95437 2.63422V29.4067C1.96434 29.7909 2.14128 30.1558 2.44648 30.4217C2.75168 30.6876 3.16029 30.8328 3.58294 30.8255H17.6972C18.1199 30.8328 18.5285 30.6876 18.8337 30.4217C19.1389 30.1558 19.3158 29.7909 19.3258 29.4067V2.63422C19.3158 2.25003 19.1389 1.88508 18.8337 1.61919C18.5285 1.3533 18.1199 1.20811 17.6972 1.2154H3.58294Z" fill="white" stroke="white" stroke-width="1.00059"/>
<path d="M13.6394 3.18953H7.64081C6.89981 3.18953 6.29724 2.55538 6.29724 1.77811V0.842926H7.38296V1.77811C7.38296 2.02486 7.53767 2.20252 7.64081 2.20252H13.6394C13.7425 2.20252 13.8972 2.03227 13.8972 1.77811V0.995912H14.983V1.77811C14.983 2.55538 14.3804 3.18953 13.6394 3.18953Z" fill="white" stroke="white" stroke-width="1.00059"/>
</g>
</g>
<defs>
<clipPath id="clip0_301_854">
<rect width="24" height="32" fill="white"/>
</clipPath>
<clipPath id="clip1_301_854">
<rect width="34.7429" height="34.7429" fill="white" transform="translate(-6.73145 0.228607)"/>
</clipPath>
</defs>
</svg>
