<svg width="32" height="32" viewBox="0 0 32 32" fill="none" xmlns="http://www.w3.org/2000/svg">
<path fill-rule="evenodd" clip-rule="evenodd" d="M25.2017 4.81513C25.7851 4.24508 26.6931 4.21125 27.3151 4.70653L27.4643 4.84137L27.6195 5.00052C30.4137 7.95136 32 11.8533 32 16C32 24.8366 24.8366 32 16 32C7.16344 32 0 24.8366 0 16C0 12.0335 1.45133 8.29112 4.03812 5.37495L4.39788 4.98247L4.53573 4.84137C5.15328 4.20933 6.16628 4.19758 6.79832 4.81513C7.38175 5.38517 7.43664 6.29217 6.95591 6.92545L6.82457 7.07772L6.70407 7.20076C4.46716 9.56304 3.2 12.68 3.2 16C3.2 23.0692 8.93075 28.8 16 28.8C23.0692 28.8 28.8 23.0692 28.8 16C28.8 12.8547 27.6627 9.8917 25.6558 7.59529L25.3133 7.21881L25.1754 7.07772C24.5579 6.44567 24.5696 5.43268 25.2017 4.81513ZM16 0C16.8837 0 17.6 0.716344 17.6 1.6V14.4C17.6 15.2837 16.8837 16 16 16C15.1163 16 14.4 15.2837 14.4 14.4V1.6C14.4 0.716344 15.1163 0 16 0Z" fill="#FF6D40" stroke="black" stroke-width="0.00064"/>
</svg>
