<svg width="30" height="30" viewBox="0 0 30 30" fill="none" xmlns="http://www.w3.org/2000/svg">
<path d="M15 1.99997C14.448 1.99997 14 2.44797 14 2.99997V3.17185C14 3.64985 13.6634 4.07632 13.1914 4.15232C12.9624 4.18932 12.7357 4.23218 12.5117 4.28318C12.0477 4.38918 11.5785 4.12648 11.3965 3.68748L11.33 3.53123C11.119 3.02123 10.5344 2.77821 10.0234 2.99021C9.51341 3.20121 9.27039 3.78585 9.48239 4.29685L9.5488 4.45701C9.7328 4.89701 9.58566 5.4179 9.17966 5.6699C8.98366 5.7919 8.79244 5.91971 8.60544 6.05271C8.21744 6.32971 7.68072 6.26666 7.34372 5.92966L7.22263 5.80857C6.83163 5.41757 6.19857 5.41757 5.80857 5.80857C5.41857 6.19957 5.41857 6.83263 5.80857 7.22263L5.92966 7.34372C6.26666 7.68072 6.32971 8.21644 6.05271 8.60544C5.91971 8.79244 5.7919 8.98366 5.6699 9.17966C5.4179 9.58566 4.89606 9.73375 4.45506 9.55075L4.29686 9.48434C3.78686 9.27334 3.20027 9.51536 2.98827 10.0254C2.77727 10.5354 3.01929 11.12 3.52929 11.332L3.68554 11.3964C4.12454 11.5784 4.3892 12.0477 4.2832 12.5117C4.2322 12.7357 4.18739 12.9624 4.15039 13.1914C4.07539 13.6624 3.64987 14 3.17187 14H3C2.448 14 2 14.448 2 15C2 15.552 2.448 16 3 16H3.17188C3.64988 16 4.07635 16.3366 4.15235 16.8086C4.18935 17.0376 4.23221 17.2642 4.28321 17.4882C4.38921 17.9522 4.12651 18.4215 3.68751 18.6035L3.53126 18.6699C3.02126 18.8809 2.77824 19.4655 2.99024 19.9765C3.20124 20.4865 3.78588 20.7295 4.29688 20.5175L4.45704 20.4511C4.89804 20.2681 5.41888 20.4153 5.67188 20.8203C5.79388 21.0163 5.92069 21.2084 6.05469 21.3964C6.33169 21.7844 6.26864 22.3212 5.93164 22.6582L5.80859 22.7793C5.41759 23.1703 5.41759 23.8033 5.80859 24.1933C6.19959 24.5833 6.83265 24.5843 7.22265 24.1933L7.3457 24.0722C7.6827 23.7352 8.21747 23.6702 8.60547 23.9472C8.79347 24.0812 8.98564 24.21 9.18164 24.332C9.58664 24.584 9.73573 25.1058 9.55273 25.5468L9.48632 25.705C9.27532 26.215 9.51734 26.8016 10.0273 27.0136C10.5373 27.2246 11.122 26.9826 11.334 26.4726L11.3984 26.3163C11.5804 25.8774 12.0497 25.6127 12.5137 25.7187C12.7377 25.7697 12.9643 25.8145 13.1933 25.8515C13.6623 25.9245 14 26.3501 14 26.8281V26.9999C14 27.5519 14.448 27.9999 15 27.9999C15.552 27.9999 16 27.5519 16 26.9999V26.8281C16 26.3501 16.3366 25.9236 16.8086 25.8476C17.0376 25.8106 17.2643 25.7677 17.4883 25.7167C17.9523 25.6107 18.4215 25.8734 18.6035 26.3124L18.6699 26.4687C18.8809 26.9787 19.4655 27.2217 19.9765 27.0097C20.4865 26.7987 20.7296 26.2141 20.5176 25.7031L20.4512 25.5429C20.2682 25.1019 20.4153 24.5811 20.8203 24.3281C21.0163 24.2061 21.2085 24.0793 21.3965 23.9453C21.7845 23.6683 22.3212 23.7313 22.6582 24.0683L22.7793 24.1914C23.1703 24.5824 23.8033 24.5824 24.1933 24.1914C24.5833 23.8004 24.5843 23.1673 24.1933 22.7773L24.0722 22.6543C23.7352 22.3173 23.6702 21.7825 23.9472 21.3945C24.0812 21.2065 24.21 21.0143 24.332 20.8183C24.584 20.4133 25.1059 20.2642 25.5469 20.4472L25.7051 20.5136C26.2151 20.7246 26.8016 20.4826 27.0136 19.9726C27.2246 19.4626 26.9826 18.878 26.4726 18.666L26.3164 18.6015C25.8774 18.4195 25.6127 17.9503 25.7187 17.4863C25.7697 17.2623 25.8145 17.0356 25.8515 16.8066C25.9245 16.3376 26.3501 16 26.8281 16H27C27.552 16 28 15.552 28 15C28 14.448 27.552 14 27 14H26.8281C26.3501 14 25.9236 13.6634 25.8476 13.1914C25.8106 12.9624 25.7678 12.7357 25.7168 12.5117C25.6108 12.0477 25.8735 11.5785 26.3125 11.3964L26.4687 11.33C26.9787 11.119 27.2217 10.5344 27.0097 10.0234C26.7987 9.5134 26.2141 9.27038 25.7031 9.48238L25.5429 9.54879C25.1019 9.73179 24.5811 9.58465 24.3281 9.17965C24.2061 8.98365 24.0793 8.79148 23.9453 8.60348C23.6683 8.21548 23.7313 7.67876 24.0683 7.34176L24.1914 7.22067C24.5824 6.82967 24.5824 6.19661 24.1914 5.80661C23.8004 5.41561 23.1673 5.41561 22.7773 5.80661L22.6562 5.92966C22.3192 6.26666 21.7825 6.33166 21.3945 6.05466C21.2065 5.92066 21.0143 5.79189 20.8183 5.66989C20.4133 5.41789 20.2662 4.89605 20.4492 4.45505L20.5156 4.29685C20.7266 3.78685 20.4846 3.20026 19.9746 2.98826C19.4646 2.77726 18.88 3.01928 18.668 3.52928L18.6015 3.68553C18.4195 4.12453 17.9503 4.38919 17.4863 4.28319C17.2623 4.23219 17.0356 4.18738 16.8066 4.15038C16.3366 4.07538 16 3.64986 16 3.17186V2.99999C16 2.44799 15.552 1.99997 15 1.99997ZM15 6.99997C19.0786 6.99997 22.4386 10.0548 22.9316 14H16.7285C16.3719 13.3823 15.7132 13.0012 15 13C14.9993 13 14.9987 13 14.998 13L11.8965 7.62497C12.851 7.2227 13.8992 6.99997 15 6.99997ZM10.1699 8.63278L13.2695 14C13.0934 14.3039 13.0005 14.6487 13 15C13.0011 15.3499 13.0941 15.6933 13.2695 15.9961L10.1679 21.3652C8.24641 19.904 6.99998 17.6 6.99998 15C6.99998 12.3989 8.24712 10.0939 10.1699 8.63278ZM16.7304 16H22.9316C22.4386 19.9451 19.0786 23 15 23C13.8992 23 12.851 22.7772 11.8965 22.375L14.998 17C14.9987 17 14.9993 17 15 17C15.7139 16.9994 16.3735 16.6183 16.7304 16Z" fill="white"/>
</svg>
